<svg id="FlatNoColor" xmlns="http://www.w3.org/2000/svg" viewBox="0 0 1842.52 1842.52">
  <defs>
    <style>
      .cls-1 {
        fill: #333;
      }
    </style>
  </defs>
  <g id="Support">
    <path class="cls-1" d="M1592,413.48l-68.25,95.28h0l-61.38,85.71-136.43-18.81-61.71-123.1,61.39-85.72,13.32-18.58,53-74a233.18,233.18,0,0,0-233.59,309.61l-588,588a222.19,222.19,0,0,0-201.11,60.8c-86.87,86.88-86.86,227.71,0,314.57s227.69,86.87,314.57,0a222.27,222.27,0,0,0,60.82-201.11L1352,738.72a233.17,233.17,0,0,0,240-325.24ZM563.31,1527.41,425.85,1490.6,389,1353.15l100.61-100.62,137.44,36.84,36.83,137.44Z"/>
  </g>
</svg>
