<svg id="FlatNoColor" xmlns="http://www.w3.org/2000/svg" viewBox="0 0 1842.52 1842.52">
  <defs>
    <style>
      .cls-1 {
        fill: #333;
      }
    </style>
  </defs>
  <g id="My_Recipes" data-name="My Recipes">
    <path class="cls-1" d="M1439.49,1352.8a125.63,125.63,0,0,1,65.51-33.14V214.09c0-68.87-53.7-125.2-119.33-125.2H475.84c-65.63,0-119.33,56.33-119.33,125.2v1223c0,65.65,55.82,119.34,124.06,119.34h323.5v197.2l65.13-63.43,79.78-77.7,79.79,77.7,65.12,63.43v-197.2h389a127,127,0,0,0,22.11-1.91c-57.78-10.1-102-59-102-117.44C1403.05,1404.25,1417,1374.42,1439.49,1352.8ZM1242.37,449.66H1126.31V1165a52.15,52.15,0,0,1-52,52h-51.11a52.15,52.15,0,0,1-52-52V449.66H769.73V392L996.41,261.13h246ZM588.94,149.3h60.39V1317.61H588.94Zm772.31,1352.53H1093.89v-88H804.07v88H480.57a71.37,71.37,0,0,1-49.78-19.8c-12.7-12.22-19.69-28.18-19.69-45s7-32.71,19.69-44.92a71.34,71.34,0,0,1,49.78-19.82h880.68a170.3,170.3,0,0,0,0,129.5Z"/>
  </g>
</svg>
