<?xml version="1.0" encoding="UTF-8" standalone="no"?>
<!DOCTYPE svg PUBLIC "-//W3C//DTD SVG 1.1//EN" "http://www.w3.org/Graphics/SVG/1.1/DTD/svg11.dtd">
<svg width="100%" height="100%" viewBox="0 0 1000 500" version="1.1" xmlns="http://www.w3.org/2000/svg" xmlns:xlink="http://www.w3.org/1999/xlink" xml:space="preserve" xmlns:serif="http://www.serif.com/" style="fill-rule:evenodd;clip-rule:evenodd;stroke-linejoin:round;stroke-miterlimit:2;">
    <rect x="0" y="0" width="1000" height="500" style="fill:#333;"/>
    <g id="Symbols" transform="matrix(1,0,0,1,-1.255921,15.042016)">
        <g transform="matrix(4.354496,1.813409,-1.501235,3.60488,741.359272,-386.177338)">
            <g transform="matrix(50,0,0,50,56.994819,111.658031)">
                <path d="M0.166,-0.273L0.42,-0.273L0.293,-0.493L0.166,-0.273ZM0.244,-0.225L0.025,-0.225L0.293,-0.688L0.561,-0.225L0.342,-0.225L0.342,-0.171L0.448,-0.171L0.448,-0.122L0.342,-0.122L0.342,-0.083C0.342,-0.067 0.346,-0.052 0.354,-0.039C0.362,-0.026 0.378,-0.02 0.4,-0.02L0.425,-0.02L0.425,-0L0.161,-0L0.161,-0.02L0.186,-0.02C0.208,-0.02 0.224,-0.026 0.232,-0.039C0.24,-0.052 0.244,-0.067 0.244,-0.083L0.244,-0.122L0.138,-0.122L0.138,-0.171L0.244,-0.171L0.244,-0.225Z" style="fill:#e1d833;fill-rule:nonzero;"/>
            </g>
        </g>
        <g transform="matrix(3.288535,-1.074609,0.889618,2.722422,387.974536,-95.842417)">
            <g transform="matrix(50,0,0,50,56.994819,111.658031)">
                <path d="M0.591,-0.226L0.485,-0L0.431,-0L0.299,-0.284L0.208,-0.089C0.205,-0.081 0.204,-0.072 0.204,-0.062C0.204,-0.057 0.204,-0.052 0.205,-0.046C0.208,-0.028 0.221,-0.02 0.244,-0.02L0.269,-0.02L0.269,-0L0.024,-0L0.024,-0.02L0.049,-0.02C0.072,-0.02 0.094,-0.028 0.115,-0.046C0.133,-0.062 0.146,-0.077 0.155,-0.091L0.271,-0.342L0.112,-0.684L0.22,-0.684L0.325,-0.458L0.431,-0.684L0.485,-0.684L0.617,-0.4L0.75,-0.684L0.804,-0.684L0.645,-0.342L0.762,-0.089C0.771,-0.075 0.784,-0.061 0.801,-0.046C0.822,-0.028 0.844,-0.02 0.867,-0.02L0.892,-0.02L0.892,-0L0.599,-0L0.599,-0.02L0.623,-0.02C0.646,-0.02 0.658,-0.028 0.659,-0.046C0.66,-0.049 0.66,-0.052 0.66,-0.055C0.66,-0.069 0.657,-0.083 0.651,-0.096L0.591,-0.226ZM0.353,-0.399L0.485,-0.115L0.563,-0.284L0.431,-0.568L0.353,-0.399Z" style="fill:#ababab;fill-rule:nonzero;"/>
            </g>
        </g>
        <g transform="matrix(3.828774,0,0,3.16966,-76.053194,-205.80219)">
            <g transform="matrix(50,0,0,50,56.994819,111.658031)">
                <path d="M0.676,-0.635L0.809,-0.404L0.942,-0.635L0.676,-0.635ZM0.22,-0.342L0.22,-0.098C0.22,-0.081 0.226,-0.064 0.239,-0.046C0.252,-0.028 0.27,-0.02 0.293,-0.02L0.317,-0.02L0.317,-0L0.024,-0L0.024,-0.02L0.049,-0.02C0.072,-0.02 0.09,-0.028 0.103,-0.046C0.116,-0.064 0.122,-0.081 0.122,-0.098L0.122,-0.586C0.122,-0.602 0.116,-0.619 0.103,-0.637C0.09,-0.655 0.072,-0.664 0.049,-0.664L0.024,-0.664L0.024,-0.684L0.317,-0.684L0.317,-0.664L0.293,-0.664C0.27,-0.664 0.252,-0.655 0.239,-0.637C0.226,-0.619 0.22,-0.602 0.22,-0.586L0.22,-0.391L0.705,-0.391L0.536,-0.684L1.027,-0.684L0.858,-0.39C0.942,-0.386 1.006,-0.363 1.05,-0.322C1.099,-0.277 1.123,-0.218 1.123,-0.146L1.123,-0.098C1.123,-0.081 1.13,-0.064 1.143,-0.046C1.156,-0.028 1.174,-0.02 1.196,-0.02L1.221,-0.02L1.221,-0L1.025,-0L1.025,-0.122C1.025,-0.194 1.009,-0.248 0.977,-0.286C0.944,-0.323 0.895,-0.342 0.83,-0.342L0.83,-0.098C0.83,-0.081 0.837,-0.064 0.85,-0.046C0.863,-0.028 0.881,-0.02 0.903,-0.02L0.928,-0.02L0.928,-0L0.635,-0L0.635,-0.02L0.659,-0.02C0.682,-0.02 0.7,-0.028 0.713,-0.046C0.726,-0.064 0.732,-0.081 0.732,-0.098L0.732,-0.342C0.667,-0.342 0.618,-0.323 0.586,-0.286C0.553,-0.248 0.537,-0.194 0.537,-0.122L0.537,-0L0.342,-0L0.342,-0.02L0.366,-0.02C0.389,-0.02 0.407,-0.028 0.42,-0.046C0.433,-0.064 0.439,-0.081 0.439,-0.098L0.439,-0.146C0.439,-0.218 0.464,-0.277 0.513,-0.322C0.52,-0.329 0.528,-0.336 0.537,-0.342L0.22,-0.342Z" style="fill:#eee;fill-rule:nonzero;"/>
            </g>
        </g>
        <g transform="matrix(3.82304,-0.209476,0.173415,3.164913,26.653565,-55.093864)">
            <g transform="matrix(50,0,0,50,56.994819,111.658031)">
                <path d="M0.22,-0.159L0.22,-0.098C0.22,-0.081 0.226,-0.064 0.239,-0.046C0.252,-0.028 0.27,-0.02 0.293,-0.02L0.317,-0.02L0.317,-0L0.024,-0L0.024,-0.02L0.049,-0.02C0.072,-0.02 0.09,-0.028 0.103,-0.046C0.116,-0.064 0.122,-0.081 0.122,-0.098L0.122,-0.586C0.122,-0.602 0.116,-0.619 0.103,-0.637C0.09,-0.655 0.072,-0.664 0.049,-0.664L0.024,-0.664L0.024,-0.684L0.317,-0.684L0.317,-0.664L0.293,-0.664C0.27,-0.664 0.252,-0.655 0.239,-0.637C0.226,-0.619 0.22,-0.602 0.22,-0.586L0.22,-0.525L0.352,-0.525C0.433,-0.525 0.496,-0.51 0.542,-0.48C0.588,-0.45 0.61,-0.404 0.61,-0.342C0.61,-0.28 0.59,-0.234 0.549,-0.204C0.509,-0.174 0.443,-0.159 0.352,-0.159L0.22,-0.159ZM0.22,-0.461L0.22,-0.222C0.259,-0.212 0.299,-0.208 0.339,-0.208C0.38,-0.208 0.419,-0.218 0.457,-0.238C0.494,-0.258 0.513,-0.293 0.513,-0.342C0.513,-0.391 0.494,-0.425 0.457,-0.446C0.419,-0.466 0.38,-0.476 0.339,-0.476C0.299,-0.476 0.259,-0.471 0.22,-0.461Z" style="fill:#8ab8fa;fill-rule:nonzero;"/>
            </g>
        </g>
        <g transform="matrix(3.366554,1.823685,-1.509743,2.78701,368.485086,-159.444286)">
            <g transform="matrix(50,0,0,50,56.994819,111.658031)">
                <path d="M0.163,-0.135C0.142,-0.12 0.126,-0.097 0.115,-0.068C0.104,-0.038 0.098,-0.007 0.098,0.024C0.098,0.056 0.104,0.087 0.115,0.116C0.126,0.146 0.142,0.168 0.163,0.184C0.184,0.2 0.206,0.208 0.229,0.208C0.251,0.208 0.273,0.2 0.294,0.184C0.315,0.168 0.331,0.146 0.343,0.116C0.354,0.087 0.359,0.056 0.359,0.024C0.359,-0.007 0.354,-0.038 0.343,-0.068C0.331,-0.097 0.315,-0.12 0.294,-0.135C0.273,-0.151 0.251,-0.159 0.229,-0.159C0.206,-0.159 0.184,-0.151 0.163,-0.135ZM0.422,-0.046C0.429,-0.023 0.433,0 0.433,0.024C0.433,0.062 0.424,0.099 0.406,0.135C0.389,0.17 0.364,0.197 0.331,0.216C0.298,0.235 0.264,0.244 0.229,0.244C0.193,0.244 0.159,0.235 0.127,0.216C0.094,0.197 0.069,0.17 0.051,0.135C0.034,0.099 0.025,0.062 0.025,0.024C0.025,-0.014 0.034,-0.05 0.051,-0.086C0.069,-0.121 0.094,-0.148 0.127,-0.167C0.159,-0.186 0.193,-0.195 0.229,-0.195C0.245,-0.195 0.262,-0.193 0.278,-0.189C0.255,-0.212 0.243,-0.236 0.243,-0.26C0.243,-0.298 0.26,-0.335 0.294,-0.37C0.298,-0.377 0.301,-0.384 0.306,-0.391L0.137,-0.391C0.104,-0.391 0.073,-0.36 0.044,-0.298L0.024,-0.298L0.063,-0.439L0.446,-0.439C0.432,-0.436 0.419,-0.429 0.406,-0.419C0.385,-0.404 0.365,-0.381 0.345,-0.352C0.326,-0.322 0.316,-0.292 0.316,-0.26C0.316,-0.228 0.333,-0.19 0.365,-0.146C0.397,-0.102 0.416,-0.069 0.422,-0.046Z" style="fill:#33e28b;fill-rule:nonzero;"/>
            </g>
        </g>
        <g transform="matrix(3.828774,0,0,3.16966,183.734988,97.48289)">
            <g transform="matrix(50,0,0,50,56.994819,111.658031)">
                <path d="M0.443,-0.366L0.443,-0.635L0.317,-0.366L0.443,-0.366ZM0.368,-0.592C0.375,-0.606 0.381,-0.622 0.387,-0.637C0.388,-0.641 0.389,-0.645 0.389,-0.648C0.389,-0.659 0.38,-0.664 0.362,-0.664L0.338,-0.664L0.338,-0.684L0.833,-0.684L0.882,-0.513L0.863,-0.513C0.827,-0.594 0.793,-0.635 0.76,-0.635L0.541,-0.635L0.541,-0.366L0.663,-0.366C0.679,-0.366 0.696,-0.373 0.714,-0.386C0.732,-0.399 0.741,-0.417 0.741,-0.439L0.741,-0.464L0.76,-0.464L0.76,-0.22L0.741,-0.22L0.741,-0.244C0.741,-0.267 0.732,-0.285 0.714,-0.298C0.696,-0.311 0.679,-0.317 0.663,-0.317L0.541,-0.317L0.541,-0.049L0.76,-0.049C0.793,-0.049 0.827,-0.09 0.863,-0.171L0.882,-0.171L0.833,-0L0.345,-0L0.345,-0.02L0.37,-0.02C0.392,-0.02 0.41,-0.028 0.423,-0.046C0.436,-0.064 0.443,-0.081 0.443,-0.098L0.443,-0.317L0.295,-0.317L0.19,-0.092C0.185,-0.08 0.183,-0.068 0.183,-0.055C0.183,-0.052 0.183,-0.049 0.183,-0.046C0.185,-0.028 0.197,-0.02 0.22,-0.02L0.244,-0.02L0.244,-0L0,-0L0,-0.02L0.024,-0.02C0.047,-0.02 0.069,-0.028 0.091,-0.046C0.112,-0.063 0.127,-0.079 0.137,-0.095L0.368,-0.592ZM0.722,-0.854L0.722,-0.781L0.439,-0.781L0.439,-0.854L0.722,-0.854Z" style="fill:#eee;fill-rule:nonzero;"/>
            </g>
        </g>
        <g transform="matrix(2.724872,0.967043,-0.800569,2.255792,118.284888,43.661528)">
            <g transform="matrix(50,0,0,50,56.994819,111.658031)">
                <path d="M0.096,-0.689C0.108,-0.689 0.114,-0.679 0.114,-0.66C0.115,-0.648 0.115,-0.639 0.115,-0.633C0.12,-0.626 0.132,-0.623 0.152,-0.623L0.309,-0.629L0.314,-0.629C0.428,-0.629 0.499,-0.603 0.527,-0.55C0.538,-0.53 0.543,-0.511 0.543,-0.491C0.543,-0.417 0.491,-0.336 0.388,-0.25C0.378,-0.244 0.369,-0.241 0.36,-0.241C0.347,-0.242 0.341,-0.248 0.341,-0.258C0.341,-0.277 0.36,-0.303 0.399,-0.337C0.436,-0.373 0.454,-0.408 0.454,-0.441L0.454,-0.444C0.454,-0.479 0.432,-0.505 0.389,-0.522C0.357,-0.534 0.314,-0.54 0.26,-0.54L0.241,-0.54L0.241,-0.535C0.265,-0.488 0.276,-0.431 0.276,-0.364C0.276,-0.253 0.247,-0.134 0.188,-0.006C0.168,0.02 0.147,0.033 0.127,0.033C0.118,0.033 0.112,0.027 0.109,0.014C0.112,0.004 0.125,-0.031 0.149,-0.093C0.173,-0.163 0.186,-0.232 0.186,-0.299L0.186,-0.332C0.186,-0.384 0.175,-0.43 0.155,-0.471C0.149,-0.474 0.146,-0.479 0.146,-0.487C0.146,-0.499 0.154,-0.515 0.171,-0.534L0.171,-0.537C0.154,-0.535 0.131,-0.534 0.102,-0.534C0.052,-0.534 0.027,-0.552 0.027,-0.589C0.026,-0.589 0.025,-0.601 0.024,-0.623C0.024,-0.64 0.041,-0.66 0.073,-0.683C0.08,-0.687 0.088,-0.689 0.096,-0.689Z" style="fill:#70e7ce;fill-rule:nonzero;"/>
            </g>
        </g>
        <g transform="matrix(3.814624,0.328876,-0.272261,3.157946,405.487391,45.211719)">
            <g transform="matrix(50,0,0,50,56.994819,111.658031)">
                <path d="M0.391,-0.366L0.391,-0.37C0.353,-0.376 0.316,-0.388 0.281,-0.407C0.23,-0.435 0.19,-0.474 0.163,-0.525C0.15,-0.548 0.141,-0.572 0.134,-0.597C0.129,-0.61 0.12,-0.624 0.107,-0.637C0.091,-0.655 0.072,-0.664 0.049,-0.664L0.024,-0.664L0.024,-0.684L0.22,-0.684C0.22,-0.645 0.229,-0.608 0.248,-0.573C0.267,-0.538 0.294,-0.511 0.33,-0.492C0.349,-0.481 0.37,-0.474 0.391,-0.469L0.391,-0.586C0.391,-0.602 0.384,-0.619 0.371,-0.637C0.358,-0.655 0.34,-0.664 0.317,-0.664L0.293,-0.664L0.293,-0.684L0.586,-0.684L0.586,-0.664L0.562,-0.664C0.539,-0.664 0.521,-0.655 0.508,-0.637C0.495,-0.619 0.488,-0.602 0.488,-0.586L0.488,-0.469C0.509,-0.474 0.53,-0.481 0.55,-0.492C0.585,-0.511 0.612,-0.538 0.631,-0.573C0.65,-0.608 0.659,-0.645 0.659,-0.684L0.854,-0.684L0.854,-0.664L0.83,-0.664C0.807,-0.664 0.788,-0.655 0.771,-0.637C0.759,-0.624 0.75,-0.61 0.745,-0.597C0.738,-0.572 0.729,-0.548 0.716,-0.525C0.688,-0.474 0.649,-0.435 0.599,-0.407C0.563,-0.388 0.526,-0.376 0.488,-0.37L0.488,-0.366L0.806,-0.366L0.806,-0.317L0.488,-0.317L0.488,-0.313C0.526,-0.308 0.563,-0.296 0.599,-0.276C0.649,-0.249 0.688,-0.21 0.716,-0.159C0.729,-0.135 0.738,-0.111 0.745,-0.086C0.75,-0.073 0.759,-0.06 0.771,-0.046C0.788,-0.028 0.807,-0.02 0.83,-0.02L0.854,-0.02L0.854,-0L0.659,-0C0.659,-0.038 0.65,-0.075 0.631,-0.11C0.612,-0.146 0.585,-0.173 0.55,-0.191C0.53,-0.202 0.509,-0.21 0.488,-0.214L0.488,-0.098C0.488,-0.081 0.495,-0.064 0.508,-0.046C0.521,-0.028 0.539,-0.02 0.562,-0.02L0.586,-0.02L0.586,-0L0.293,-0L0.293,-0.02L0.317,-0.02C0.34,-0.02 0.358,-0.028 0.371,-0.046C0.384,-0.064 0.391,-0.081 0.391,-0.098L0.391,-0.214C0.37,-0.21 0.349,-0.202 0.33,-0.191C0.294,-0.173 0.267,-0.146 0.248,-0.11C0.229,-0.075 0.22,-0.038 0.22,-0L0.024,-0L0.024,-0.02L0.049,-0.02C0.072,-0.02 0.091,-0.028 0.107,-0.046C0.12,-0.06 0.129,-0.073 0.134,-0.086C0.141,-0.111 0.15,-0.135 0.163,-0.159C0.19,-0.21 0.23,-0.249 0.281,-0.276C0.316,-0.296 0.353,-0.308 0.391,-0.313L0.391,-0.317L0.073,-0.317L0.073,-0.366L0.391,-0.366Z" style="fill:#c60031;fill-rule:nonzero;"/>
            </g>
        </g>
        <g transform="matrix(4.364189,-0.828655,0.686004,3.612904,468.058095,88.650642)">
            <g transform="matrix(50,0,0,50,56.994819,111.658031)">
                <path d="M0.585,-0.342C0.585,-0.244 0.553,-0.161 0.49,-0.095C0.471,-0.075 0.451,-0.058 0.429,-0.044L0.44,-0.044C0.528,-0.044 0.597,-0.071 0.647,-0.124L0.659,-0.107C0.656,-0.103 0.652,-0.099 0.648,-0.095C0.585,-0.029 0.516,0.005 0.44,0.005C0.405,0.005 0.372,0.001 0.342,-0.008C0.311,0.001 0.278,0.005 0.243,0.005C0.168,0.005 0.098,-0.029 0.035,-0.095C0.032,-0.099 0.028,-0.103 0.024,-0.107L0.037,-0.124C0.087,-0.071 0.156,-0.044 0.243,-0.044L0.255,-0.044C0.233,-0.058 0.212,-0.075 0.193,-0.095C0.13,-0.161 0.099,-0.244 0.099,-0.342C0.099,-0.44 0.121,-0.522 0.165,-0.589C0.21,-0.655 0.269,-0.689 0.342,-0.689C0.415,-0.689 0.474,-0.655 0.518,-0.589C0.563,-0.522 0.585,-0.44 0.585,-0.342ZM0.342,-0.066C0.374,-0.082 0.401,-0.106 0.423,-0.14C0.466,-0.203 0.487,-0.271 0.487,-0.342C0.487,-0.415 0.474,-0.482 0.449,-0.545C0.423,-0.608 0.387,-0.64 0.342,-0.64C0.296,-0.64 0.26,-0.608 0.234,-0.545C0.209,-0.482 0.196,-0.415 0.196,-0.342C0.196,-0.271 0.218,-0.203 0.261,-0.14C0.283,-0.106 0.31,-0.082 0.342,-0.066Z" style="fill:#5c9aca;fill-rule:nonzero;"/>
            </g>
        </g>
        <g transform="matrix(4.579735,0,0,3.791345,281.391704,-145.835101)">
            <g transform="matrix(50,0,0,50,56.994819,111.658031)">
                <path d="M0.352,-0.684C0.433,-0.684 0.496,-0.669 0.542,-0.639C0.588,-0.609 0.61,-0.563 0.61,-0.501C0.61,-0.439 0.59,-0.393 0.549,-0.363C0.528,-0.347 0.5,-0.335 0.464,-0.328L0.6,-0.092C0.61,-0.078 0.623,-0.062 0.64,-0.046C0.659,-0.028 0.679,-0.02 0.702,-0.02L0.727,-0.02L0.727,-0L0.434,-0L0.434,-0.02L0.458,-0.02C0.481,-0.02 0.493,-0.029 0.495,-0.047L0.495,-0.055C0.495,-0.069 0.491,-0.083 0.485,-0.096L0.358,-0.318L0.22,-0.318L0.22,0.146L0.122,0.244L0.122,-0.586C0.122,-0.602 0.116,-0.62 0.103,-0.637C0.09,-0.655 0.072,-0.664 0.049,-0.664L0.024,-0.664L0.024,-0.684L0.22,-0.684L0.22,-0.381C0.259,-0.371 0.299,-0.366 0.339,-0.366C0.38,-0.366 0.419,-0.377 0.457,-0.397C0.494,-0.417 0.513,-0.452 0.513,-0.501C0.513,-0.55 0.494,-0.584 0.457,-0.605C0.44,-0.614 0.423,-0.621 0.405,-0.626C0.405,-0.618 0.402,-0.61 0.398,-0.603C0.394,-0.594 0.387,-0.588 0.379,-0.583C0.37,-0.579 0.361,-0.576 0.352,-0.576C0.342,-0.576 0.333,-0.579 0.324,-0.583C0.316,-0.588 0.309,-0.594 0.305,-0.603C0.3,-0.612 0.298,-0.621 0.298,-0.63C0.298,-0.64 0.3,-0.649 0.305,-0.657C0.309,-0.666 0.316,-0.672 0.324,-0.677C0.333,-0.682 0.342,-0.684 0.352,-0.684Z" style="fill:#bb0949;fill-rule:nonzero;"/>
            </g>
        </g>
        <g transform="matrix(3.828774,0,0,3.16966,642.480058,-60.562345)">
            <g transform="matrix(50,0,0,50,56.994819,111.658031)">
                <path d="M0.205,-0.222L0.333,-0.069L0.46,-0.197L0.333,-0.35L0.205,-0.222ZM0.391,-0.433L0.561,-0.229L0.332,-0L0.263,-0L0.104,-0.189L0.293,-0.379L0.293,-0.604L0.12,-0.504C0.104,-0.493 0.088,-0.477 0.071,-0.457C0.053,-0.435 0.044,-0.413 0.044,-0.391L0.044,-0.366L0.024,-0.366L0.024,-0.61L0.044,-0.61L0.044,-0.586C0.044,-0.563 0.053,-0.552 0.071,-0.552C0.088,-0.552 0.105,-0.555 0.121,-0.561L0.342,-0.688L0.562,-0.561C0.578,-0.555 0.595,-0.552 0.613,-0.552C0.631,-0.552 0.64,-0.563 0.64,-0.586L0.64,-0.61L0.659,-0.61L0.659,-0.366L0.64,-0.366L0.64,-0.391C0.64,-0.413 0.631,-0.435 0.613,-0.457C0.596,-0.477 0.579,-0.493 0.564,-0.504L0.391,-0.604L0.391,-0.433Z" style="fill:#19c9e7;fill-rule:nonzero;"/>
            </g>
        </g>
        <g transform="matrix(3.055775,-2.306893,1.909767,2.529731,-249.745313,163.135856)">
            <g transform="matrix(50,0,0,50,56.994819,111.658031)">
                <path d="M0.306,-0.317C0.313,-0.239 0.354,-0.157 0.427,-0.074C0.501,-0.157 0.541,-0.239 0.548,-0.317L0.306,-0.317ZM0.306,-0.366L0.548,-0.366C0.541,-0.445 0.501,-0.526 0.427,-0.61C0.354,-0.526 0.313,-0.445 0.306,-0.366ZM0.646,-0.317C0.637,-0.207 0.564,-0.099 0.427,0.005C0.291,-0.099 0.218,-0.207 0.208,-0.317L0.17,-0.317C0.139,-0.317 0.116,-0.316 0.102,-0.313C0.088,-0.31 0.078,-0.306 0.072,-0.299C0.066,-0.292 0.063,-0.285 0.063,-0.277C0.063,-0.267 0.07,-0.257 0.084,-0.247C0.098,-0.238 0.107,-0.231 0.109,-0.225C0.113,-0.216 0.115,-0.208 0.115,-0.199C0.115,-0.188 0.111,-0.179 0.103,-0.171C0.095,-0.163 0.085,-0.159 0.074,-0.159C0.062,-0.159 0.051,-0.166 0.041,-0.181C0.03,-0.195 0.024,-0.217 0.024,-0.247C0.024,-0.282 0.039,-0.311 0.068,-0.333C0.095,-0.354 0.141,-0.365 0.208,-0.366C0.218,-0.477 0.291,-0.584 0.427,-0.688C0.564,-0.584 0.637,-0.477 0.646,-0.366C0.713,-0.365 0.76,-0.354 0.787,-0.333C0.816,-0.311 0.83,-0.282 0.83,-0.247C0.83,-0.217 0.825,-0.195 0.814,-0.181C0.803,-0.166 0.792,-0.159 0.781,-0.159C0.769,-0.159 0.76,-0.163 0.751,-0.171C0.743,-0.179 0.739,-0.188 0.739,-0.199C0.739,-0.208 0.741,-0.216 0.746,-0.225C0.748,-0.231 0.756,-0.238 0.77,-0.247C0.784,-0.257 0.792,-0.267 0.792,-0.277C0.792,-0.285 0.788,-0.292 0.782,-0.299C0.776,-0.306 0.766,-0.31 0.752,-0.313C0.738,-0.316 0.715,-0.317 0.685,-0.317L0.646,-0.317Z" style="fill:#f267a7;fill-rule:nonzero;"/>
            </g>
        </g>
        <g transform="matrix(4.946866,0,0,4.095275,95.68569,-264.826103)">
            <g transform="matrix(50,0,0,50,56.994819,111.658031)">
                <path d="M0.287,-0.308L0.109,-0L0.024,-0L0.254,-0.397L0.181,-0.598C0.169,-0.626 0.154,-0.64 0.136,-0.64C0.118,-0.64 0.106,-0.635 0.1,-0.626C0.093,-0.616 0.087,-0.605 0.081,-0.592L0.063,-0.592C0.074,-0.624 0.087,-0.648 0.103,-0.664C0.119,-0.68 0.135,-0.688 0.15,-0.688C0.159,-0.688 0.169,-0.685 0.181,-0.677C0.193,-0.669 0.203,-0.659 0.21,-0.647C0.218,-0.636 0.223,-0.625 0.226,-0.615L0.42,-0.086C0.432,-0.058 0.447,-0.044 0.465,-0.044C0.482,-0.044 0.494,-0.049 0.501,-0.058C0.508,-0.067 0.514,-0.078 0.52,-0.091L0.537,-0.091C0.527,-0.059 0.514,-0.035 0.498,-0.019C0.482,-0.003 0.466,0.005 0.45,0.005C0.442,0.005 0.432,0.001 0.42,-0.007C0.408,-0.015 0.398,-0.024 0.39,-0.036C0.383,-0.048 0.377,-0.059 0.375,-0.068L0.287,-0.308Z" style="fill:#f99213;fill-rule:nonzero;"/>
            </g>
        </g>
        <g transform="matrix(4.166249,0,0,3.44904,238.538311,-249.899051)">
            <g transform="matrix(50,0,0,50,56.994819,111.658031)">
                <path d="M0.342,-0.688C0.437,-0.688 0.514,-0.655 0.572,-0.588C0.63,-0.522 0.659,-0.439 0.659,-0.341C0.659,-0.244 0.63,-0.162 0.571,-0.095C0.513,-0.028 0.436,0.005 0.342,0.005C0.247,0.005 0.171,-0.028 0.112,-0.095C0.054,-0.162 0.024,-0.244 0.024,-0.341C0.024,-0.439 0.053,-0.522 0.112,-0.588C0.17,-0.655 0.246,-0.688 0.342,-0.688ZM0.342,-0.64C0.272,-0.64 0.219,-0.608 0.18,-0.545C0.141,-0.482 0.122,-0.415 0.122,-0.342C0.122,-0.271 0.141,-0.203 0.18,-0.139C0.219,-0.076 0.272,-0.044 0.342,-0.044C0.41,-0.044 0.464,-0.076 0.503,-0.139C0.542,-0.203 0.562,-0.271 0.562,-0.342C0.562,-0.415 0.542,-0.482 0.503,-0.545C0.464,-0.608 0.41,-0.64 0.342,-0.64ZM0.195,-0.488L0.215,-0.488L0.215,-0.464C0.215,-0.441 0.224,-0.423 0.242,-0.41C0.26,-0.397 0.277,-0.391 0.293,-0.391L0.391,-0.391C0.407,-0.391 0.424,-0.397 0.442,-0.41C0.46,-0.423 0.469,-0.441 0.469,-0.464L0.469,-0.488L0.488,-0.488L0.488,-0.195L0.469,-0.195L0.469,-0.22C0.469,-0.243 0.46,-0.26 0.442,-0.273C0.424,-0.286 0.407,-0.293 0.391,-0.293L0.293,-0.293C0.277,-0.293 0.26,-0.286 0.242,-0.273C0.224,-0.26 0.215,-0.243 0.215,-0.22L0.215,-0.195L0.195,-0.195L0.195,-0.488Z" style="fill:#dbd8af;fill-rule:nonzero;"/>
            </g>
        </g>
        <g transform="matrix(4.166249,0,0,3.44904,35.794246,29.662038)">
            <g transform="matrix(50,0,0,50,56.994819,111.658031)">
                <path d="M0.312,-0.387L0.358,-0.513L0.427,-0.488L0.365,-0.316C0.378,-0.284 0.385,-0.245 0.385,-0.2L0.385,-0.152L0.493,-0.444L0.562,-0.419L0.409,-0L0.312,-0L0.312,-0.169C0.312,-0.28 0.265,-0.344 0.173,-0.362L0.103,-0.167C0.099,-0.159 0.098,-0.15 0.098,-0.14C0.098,-0.137 0.098,-0.133 0.099,-0.129C0.1,-0.116 0.106,-0.104 0.115,-0.095C0.123,-0.085 0.134,-0.078 0.146,-0.073C0.155,-0.07 0.164,-0.069 0.172,-0.069C0.176,-0.069 0.18,-0.069 0.184,-0.07L0.197,0.003C0.189,0.004 0.181,0.005 0.173,0.005C0.155,0.005 0.138,0.002 0.121,-0.004C0.097,-0.013 0.076,-0.028 0.058,-0.047C0.041,-0.067 0.03,-0.09 0.026,-0.117C0.025,-0.125 0.024,-0.132 0.024,-0.14C0.024,-0.158 0.028,-0.175 0.034,-0.192L0.125,-0.445L0.212,-0.43C0.253,-0.423 0.286,-0.408 0.312,-0.387Z" style="fill:#f7c0a3;fill-rule:nonzero;"/>
            </g>
        </g>
        <g transform="matrix(2.743828,1.916154,-1.586292,2.271485,36.35731,10.717286)">
            <g transform="matrix(50,0,0,50,56.994819,111.658031)">
                <path d="M0.412,-0.477L0.412,-0.586C0.412,-0.602 0.405,-0.619 0.392,-0.637C0.379,-0.655 0.361,-0.664 0.338,-0.664L0.314,-0.664L0.314,-0.684L0.607,-0.684L0.607,-0.664L0.583,-0.664C0.56,-0.664 0.542,-0.655 0.529,-0.637C0.516,-0.619 0.509,-0.602 0.509,-0.586L0.509,-0.425L0.768,-0.684L0.921,-0.684L0.921,-0.664L0.896,-0.664C0.874,-0.664 0.846,-0.655 0.813,-0.637C0.781,-0.619 0.756,-0.602 0.739,-0.586L0.652,-0.499L0.774,-0.376L0.623,-0.225L0.73,-0.097C0.746,-0.081 0.767,-0.064 0.794,-0.046C0.822,-0.028 0.847,-0.02 0.87,-0.02L0.895,-0.02L0.895,-0L0.684,-0L0.509,-0.208L0.509,-0.098C0.509,-0.081 0.516,-0.064 0.529,-0.046C0.542,-0.028 0.56,-0.02 0.583,-0.02L0.607,-0.02L0.607,-0L0.314,-0L0.314,-0.02L0.338,-0.02C0.361,-0.02 0.379,-0.028 0.392,-0.046C0.405,-0.064 0.412,-0.081 0.412,-0.098L0.412,-0.259L0.153,-0L0,-0L0,-0.02L0.024,-0.02C0.047,-0.02 0.075,-0.028 0.107,-0.046C0.14,-0.064 0.165,-0.081 0.182,-0.098L0.269,-0.185L0.146,-0.307L0.298,-0.459L0.192,-0.586C0.176,-0.602 0.155,-0.619 0.127,-0.637C0.099,-0.655 0.074,-0.664 0.051,-0.664L0.027,-0.664L0.027,-0.684L0.238,-0.684L0.412,-0.477ZM0.591,-0.262L0.671,-0.342L0.583,-0.43L0.511,-0.358L0.591,-0.262ZM0.33,-0.422L0.25,-0.342L0.338,-0.254L0.41,-0.326L0.33,-0.422Z" style="fill:#b79973;fill-rule:nonzero;"/>
            </g>
        </g>
        <g transform="matrix(3.460583,-1.831425,1.516149,2.864852,386.857662,68.606314)">
            <g transform="matrix(50,0,0,50,56.994819,111.658031)">
                <path d="M0.664,-0.593C0.653,-0.538 0.635,-0.485 0.607,-0.433C0.564,-0.353 0.502,-0.291 0.422,-0.248C0.356,-0.213 0.289,-0.192 0.22,-0.186L0.22,-0.098C0.22,-0.081 0.226,-0.064 0.239,-0.046C0.252,-0.028 0.27,-0.02 0.293,-0.02L0.317,-0.02L0.317,-0L0.024,-0L0.024,-0.02L0.049,-0.02C0.072,-0.02 0.09,-0.028 0.103,-0.046C0.116,-0.064 0.122,-0.081 0.122,-0.098L0.122,-0.586C0.122,-0.602 0.116,-0.619 0.103,-0.637C0.09,-0.655 0.072,-0.664 0.049,-0.664L0.024,-0.664L0.024,-0.684L0.22,-0.684L0.22,-0.469C0.241,-0.474 0.261,-0.481 0.281,-0.492C0.316,-0.511 0.343,-0.538 0.362,-0.573C0.381,-0.608 0.391,-0.645 0.391,-0.684L0.488,-0.684C0.488,-0.629 0.475,-0.576 0.447,-0.525C0.42,-0.474 0.381,-0.435 0.33,-0.407C0.294,-0.388 0.257,-0.376 0.22,-0.37L0.22,-0.284C0.272,-0.29 0.324,-0.306 0.373,-0.333C0.438,-0.368 0.487,-0.417 0.522,-0.482C0.556,-0.546 0.574,-0.614 0.574,-0.684L0.769,-0.684L0.769,-0.664L0.745,-0.664C0.722,-0.664 0.703,-0.655 0.688,-0.637C0.676,-0.622 0.667,-0.607 0.664,-0.593Z" style="fill:#ff4f4f;fill-rule:nonzero;"/>
            </g>
        </g>
        <g transform="matrix(3.344416,-0.896134,0.741866,2.768683,-232.855198,-0.003015)">
            <g transform="matrix(50,0,0,50,56.994819,111.658031)">
                <path d="M0.128,-0.177C0.127,-0.173 0.126,-0.169 0.126,-0.166C0.126,-0.155 0.129,-0.144 0.134,-0.133C0.141,-0.117 0.15,-0.103 0.162,-0.091C0.174,-0.079 0.188,-0.07 0.203,-0.063C0.215,-0.058 0.226,-0.056 0.236,-0.056C0.24,-0.056 0.244,-0.056 0.248,-0.057C0.262,-0.059 0.274,-0.065 0.283,-0.074C0.292,-0.083 0.298,-0.095 0.3,-0.109L0.3,-0.12C0.3,-0.131 0.298,-0.142 0.293,-0.153C0.286,-0.169 0.277,-0.183 0.265,-0.195L0.196,-0.264L0.145,-0.212C0.136,-0.203 0.13,-0.192 0.128,-0.177ZM0.16,-0.297C0.128,-0.336 0.083,-0.414 0.024,-0.532L0.045,-0.544L0.182,-0.562L0.186,-0.542C0.17,-0.54 0.156,-0.535 0.145,-0.529C0.136,-0.524 0.131,-0.517 0.131,-0.508C0.131,-0.506 0.132,-0.504 0.132,-0.502C0.135,-0.49 0.143,-0.47 0.155,-0.44C0.167,-0.411 0.187,-0.381 0.214,-0.35L0.338,-0.475C0.361,-0.497 0.374,-0.515 0.379,-0.53C0.382,-0.538 0.383,-0.545 0.383,-0.551C0.383,-0.556 0.382,-0.561 0.38,-0.565C0.379,-0.568 0.374,-0.574 0.364,-0.584C0.35,-0.599 0.341,-0.611 0.337,-0.621C0.334,-0.63 0.332,-0.638 0.332,-0.646C0.332,-0.65 0.333,-0.655 0.334,-0.66C0.338,-0.671 0.347,-0.679 0.359,-0.685C0.365,-0.687 0.371,-0.688 0.378,-0.688C0.386,-0.688 0.394,-0.687 0.402,-0.683C0.417,-0.676 0.428,-0.664 0.436,-0.646C0.441,-0.631 0.444,-0.615 0.444,-0.596C0.444,-0.583 0.443,-0.569 0.44,-0.554C0.434,-0.516 0.414,-0.481 0.381,-0.448L0.249,-0.315L0.317,-0.247C0.335,-0.229 0.348,-0.207 0.356,-0.182C0.36,-0.169 0.362,-0.156 0.362,-0.143C0.362,-0.13 0.36,-0.118 0.356,-0.105C0.348,-0.079 0.335,-0.057 0.317,-0.039C0.299,-0.021 0.278,-0.009 0.252,-0.001C0.239,0.002 0.227,0.004 0.214,0.004C0.201,0.004 0.188,0.002 0.176,-0.001C0.15,-0.009 0.128,-0.022 0.11,-0.04C0.092,-0.057 0.08,-0.079 0.072,-0.105C0.068,-0.118 0.066,-0.13 0.066,-0.143C0.066,-0.156 0.068,-0.169 0.072,-0.182C0.08,-0.207 0.092,-0.229 0.11,-0.247L0.16,-0.297Z" style="fill:#96ce76;fill-rule:nonzero;"/>
            </g>
        </g>
        <g transform="matrix(2.334844,-1.981664,1.640525,1.932907,-231.951169,29.155986)">
            <g transform="matrix(50,0,0,50,56.994819,111.658031)">
                <path d="M0.175,-0.618C0.158,-0.603 0.145,-0.582 0.136,-0.554C0.127,-0.527 0.122,-0.497 0.122,-0.464C0.122,-0.434 0.127,-0.406 0.136,-0.378C0.145,-0.351 0.158,-0.33 0.175,-0.315C0.192,-0.3 0.21,-0.293 0.228,-0.293C0.247,-0.293 0.264,-0.3 0.281,-0.315C0.299,-0.33 0.312,-0.351 0.321,-0.378C0.33,-0.406 0.334,-0.434 0.334,-0.464C0.334,-0.497 0.33,-0.527 0.321,-0.554C0.312,-0.582 0.299,-0.603 0.281,-0.618C0.264,-0.632 0.247,-0.64 0.228,-0.64C0.21,-0.64 0.192,-0.632 0.175,-0.618ZM0.288,-0.679C0.302,-0.675 0.316,-0.668 0.331,-0.66C0.363,-0.641 0.388,-0.614 0.406,-0.579C0.423,-0.544 0.432,-0.505 0.432,-0.464C0.432,-0.426 0.423,-0.389 0.406,-0.354C0.388,-0.318 0.363,-0.291 0.331,-0.272C0.313,-0.262 0.295,-0.255 0.277,-0.25L0.277,-0.171L0.383,-0.171L0.383,-0.122L0.277,-0.122L0.277,-0.083C0.277,-0.067 0.281,-0.052 0.29,-0.039C0.298,-0.026 0.313,-0.02 0.336,-0.02L0.36,-0.02L0.36,-0L0.097,-0L0.097,-0.02L0.121,-0.02C0.144,-0.02 0.159,-0.026 0.167,-0.039C0.176,-0.052 0.18,-0.067 0.18,-0.083L0.18,-0.122L0.073,-0.122L0.073,-0.171L0.18,-0.171L0.18,-0.25C0.161,-0.255 0.144,-0.262 0.126,-0.272C0.094,-0.291 0.068,-0.318 0.051,-0.354C0.033,-0.389 0.024,-0.426 0.024,-0.464C0.024,-0.505 0.033,-0.544 0.051,-0.579C0.068,-0.614 0.094,-0.641 0.126,-0.66C0.14,-0.668 0.154,-0.675 0.169,-0.679C0.139,-0.687 0.113,-0.701 0.093,-0.721C0.072,-0.742 0.06,-0.761 0.058,-0.779C0.057,-0.783 0.057,-0.787 0.057,-0.791C0.057,-0.803 0.061,-0.812 0.068,-0.819C0.075,-0.826 0.084,-0.83 0.096,-0.83C0.107,-0.83 0.116,-0.827 0.123,-0.82C0.129,-0.813 0.134,-0.805 0.138,-0.796C0.14,-0.79 0.142,-0.777 0.143,-0.756C0.144,-0.735 0.153,-0.722 0.169,-0.717C0.186,-0.712 0.205,-0.709 0.228,-0.709C0.251,-0.709 0.27,-0.712 0.287,-0.717C0.303,-0.722 0.312,-0.735 0.313,-0.756C0.314,-0.777 0.316,-0.79 0.318,-0.796C0.322,-0.805 0.327,-0.813 0.333,-0.82C0.34,-0.827 0.349,-0.83 0.36,-0.83C0.372,-0.83 0.381,-0.826 0.388,-0.819C0.395,-0.812 0.399,-0.803 0.399,-0.791C0.399,-0.787 0.399,-0.783 0.398,-0.779C0.396,-0.761 0.384,-0.742 0.363,-0.721C0.343,-0.701 0.318,-0.687 0.288,-0.679Z" style="fill:#dab76d;fill-rule:nonzero;"/>
            </g>
        </g>
    </g>
</svg>
