<svg id="FlatNoColor" xmlns="http://www.w3.org/2000/svg" viewBox="0 0 1842.52 1842.52">
  <defs>
    <style>
      .cls-1 {
        fill: #333;
      }
    </style>
  </defs>
  <g id="Settings">
    <path class="cls-1" d="M1628.21,1001.11V841.41c0-19,5.91-35.32,14.06-38.75l113-47.7a14.27,14.27,0,0,0,8.38-16.19A846.93,846.93,0,0,0,1648.93,462a14.24,14.24,0,0,0-17.36-5.51L1518,502.64c-8.18,3.33-23.88-4-37.35-17.47L1367.73,372.26c-13.45-13.45-20.81-29.16-17.47-37.36l46.17-113.57a14.26,14.26,0,0,0-5.52-17.37A846.6,846.6,0,0,0,1114.13,89.23a14.26,14.26,0,0,0-16.2,8.38l-47.68,113c-3.44,8.14-19.74,14.06-38.77,14.06H851.8c-19,0-35.32-5.92-38.77-14.06l-47.68-113a14.26,14.26,0,0,0-16.19-8.38A846.47,846.47,0,0,0,472.37,204a14.25,14.25,0,0,0-5.51,17.37L513,334.9c3.33,8.2-4,23.91-17.47,37.36L382.65,485.17c-13.47,13.45-29.18,20.8-37.36,17.47L231.72,456.47A14.25,14.25,0,0,0,214.35,462,847,847,0,0,0,99.62,738.77,14.25,14.25,0,0,0,108,755l113,47.7c8.15,3.43,14,19.74,14,38.75v159.7c0,19-5.9,35.33-14,38.75l-113,47.7a14.25,14.25,0,0,0-8.37,16.19,846.87,846.87,0,0,0,114.73,276.79,14.25,14.25,0,0,0,17.37,5.51l113.57-46.17c8.18-3.33,23.89,4,37.36,17.47l112.91,112.92c13.45,13.45,20.8,29.15,17.47,37.35l-46.17,113.56a14.24,14.24,0,0,0,5.51,17.36A846.49,846.49,0,0,0,749.16,1753.3a14.27,14.27,0,0,0,16.19-8.38l47.68-113c3.45-8.14,19.75-14.06,38.77-14.06h159.68c19,0,35.33,5.92,38.77,14.06l47.68,113a14.28,14.28,0,0,0,16.2,8.38,846.62,846.62,0,0,0,276.78-114.74,14.26,14.26,0,0,0,5.52-17.37l-46.17-113.57c-3.34-8.2,4-23.9,17.47-37.35l112.91-112.92c13.47-13.45,29.17-20.8,37.35-17.47l113.58,46.18a14.25,14.25,0,0,0,17.36-5.52,846.84,846.84,0,0,0,114.76-276.79,14.27,14.27,0,0,0-8.38-16.19l-113-47.7C1634.12,1036.44,1628.21,1020.12,1628.21,1001.11ZM933,1317.76c-219,0-396.51-177.54-396.51-396.51S714,524.77,933,524.77s396.48,177.5,396.48,396.48S1152,1317.76,933,1317.76Z"/>
  </g>
</svg>
