<svg id="FlatNoColor" xmlns="http://www.w3.org/2000/svg" viewBox="0 0 1842.52 1842.52">
  <defs>
    <style>
      .cls-1 {
        fill: #333;
      }
    </style>
  </defs>
  <g id="Legend">
    <g>
      <path class="cls-1" d="M829,1365.77v7.74c-1.36-1-2.7-1.9-4.05-2.81h0Z"/>
      <path class="cls-1" d="M1589.37,490.42V343.3c-75.67,57.25-141.82,76.08-187.06,83-76.48,11.7-141.48-3.33-201-13L1010.77,181.49h-187L636.24,414.09c-58.16,9.67-121.67,23.56-196,12.2-45.24-6.91-111.39-25.74-187.06-83V482.77c-36.33-13.3-76.67-32.7-119.56-61.15V1388.4a543.24,543.24,0,0,0,157.14,55.89,516.89,516.89,0,0,0,97.61,9.14c60.77,0,113.09-9.87,167.31-14.06L418,1601.71H634.83l113-137.32c34.93,13.3,76.23,34.43,119.92,68.92V1318.65l53.52-65,53.52,65v214.66c45-29.84,87.1-49.7,124.76-63l108.15,131.44H1424.5l-135.1-159.35c87.36,3.41,162.19,25,232.95,25,36.7,0,72.32-5.82,108-23a228.72,228.72,0,0,0,78.58-62.15V421.62C1665.38,456,1624.23,477.11,1589.37,490.42ZM494.2,1406.71c-33.78,3.91-68.71,8-105.86,8a480.54,480.54,0,0,1-90.39-8.45,504,504,0,0,1-125.59-41.51V489.41a577,577,0,0,0,80.79,34.42v742.35a420.83,420.83,0,0,0,131.55,53.35c113.61,24.57,186.59-11.1,277.6-6L590,1398.85C556.69,1399.49,525,1403.16,494.2,1406.71ZM829,1460.23A476.14,476.14,0,0,0,773.68,1433l51.24-62.26h0l4.06-4.92Zm184.58,5.3v-99.76l4.06,4.92h0l55.88,67.91A583.92,583.92,0,0,0,1013.55,1465.53Zm346.19,106.18H1221.86L944.43,1234.55l-23.17-28.15-23.17,28.15L620.66,1571.71H482.78l346-408.1,16.41-19.36-16.37-19.39L456.91,684.29l381.23-472.8H996.6l388.86,473-371.75,440.38-16.38,19.39,16.42,19.36Zm310.42-204a189.37,189.37,0,0,1-56.59,41.7c-27.17,13-56.15,19.14-91.22,19.14-33.24,0-69.07-5.43-107-11.17-44.24-6.68-94.37-14.27-148.79-14.27-3.48,0-6.91,0-10.34.09l-76-89.65c91-5.14,164,30.53,277.6,6a420.83,420.83,0,0,0,131.55-53.35V531.64a468.13,468.13,0,0,0,80.79-36.94Z"/>
      <path class="cls-1" d="M1017.61,1370.69h0c-1.35.91-2.69,1.85-4.05,2.81v-7.74Z"/>
    </g>
    <g>
      <path class="cls-1" d="M824.91,1370.69h0l4.05-4.93Zm188.64-4.92,4.05,4.93h0Z"/>
      <path class="cls-1" d="M1242.8,661.71l-302.34-368L917,265.13,893.86,294,599.47,662,584,681.3l16,18.85,298.36,352.07,22.89,27,22.89-27,298.36-352.07,16.19-19.1Zm-268-174.2V969.67l-53.52,63.15-53.52-63.15V487.51a203.16,203.16,0,0,0-50.37-49.86l99.91-124.88L1021.81,440A204,204,0,0,0,974.78,487.51Z"/>
    </g>
  </g>
</svg>
