<?xml version="1.0" encoding="UTF-8" standalone="no"?>
<!DOCTYPE svg PUBLIC "-//W3C//DTD SVG 1.1//EN" "http://www.w3.org/Graphics/SVG/1.1/DTD/svg11.dtd">
<svg width="100%" height="100%" viewBox="0 0 256 256" version="1.1" xmlns="http://www.w3.org/2000/svg" xmlns:xlink="http://www.w3.org/1999/xlink" xml:space="preserve" xmlns:serif="http://www.serif.com/" style="fill-rule:evenodd;clip-rule:evenodd;stroke-linejoin:round;stroke-miterlimit:2;">
    <g id="CopyUrl">
        <g id="Bracket" transform="matrix(0.73635,0.73635,-0.73635,0.73635,127.325013,-59.830572)">
            <g transform="matrix(1,0,0,1.872727,-4.5,-68.636364)">
                <path d="M89.519,98.058C86.774,98.058 84.14,97.476 82.199,96.439C80.257,95.402 79.167,93.996 79.167,92.53C79.167,81.687 79.167,58.677 79.167,58.677C79.167,47.748 95.783,38.875 116.25,38.875L148.75,38.875C169.217,38.875 185.833,47.748 185.833,58.677L185.833,92.53C185.833,93.996 184.743,95.402 182.801,96.439C180.86,97.476 178.226,98.058 175.481,98.058C175.438,98.058 175.395,98.058 175.353,98.058C172.607,98.058 169.974,97.476 168.032,96.439C166.091,95.402 165,93.996 165,92.53C165,81.687 165,58.677 165,58.677C165,53.888 157.719,50 148.75,50L116.25,50C107.281,50 100,53.888 100,58.677L100,92.53C100,93.996 98.909,95.402 96.968,96.439C95.026,97.476 92.393,98.058 89.647,98.058C89.605,98.058 89.562,98.058 89.519,98.058Z" style="fill:rgb(51,51,51);"/>
                <path d="M89.519,98.272C86.668,98.272 83.933,97.667 81.916,96.59C79.899,95.513 78.767,94.053 78.767,92.53L78.767,58.677C78.767,47.63 95.562,38.662 116.25,38.662L148.75,38.662C169.438,38.662 186.233,47.63 186.233,58.677L186.233,92.53C186.233,94.053 185.101,95.513 183.084,96.59C181.067,97.667 178.332,98.272 175.481,98.272L175.353,98.272C172.501,98.272 169.766,97.667 167.749,96.59C165.733,95.513 164.6,94.053 164.6,92.53L164.6,58.677C164.6,54.006 157.498,50.214 148.75,50.214L116.25,50.214C107.502,50.214 100.4,54.006 100.4,58.677L100.4,92.53C100.4,94.053 99.267,95.513 97.251,96.59C95.234,97.667 92.499,98.272 89.647,98.272L89.519,98.272ZM89.519,98.058L89.647,98.058C92.393,98.058 95.026,97.476 96.968,96.439C98.909,95.402 100,93.996 100,92.53L100,58.677C100,53.888 107.281,50 116.25,50L148.75,50C157.719,50 165,53.888 165,58.677L165,92.53C165,93.996 166.091,95.402 168.032,96.439C169.974,97.476 172.607,98.058 175.353,98.058L175.481,98.058C178.226,98.058 180.86,97.476 182.801,96.439C184.743,95.402 185.833,93.996 185.833,92.53L185.833,58.677C185.833,47.748 169.217,38.875 148.75,38.875L116.25,38.875C95.783,38.875 79.167,47.748 79.167,58.677L79.167,92.53C79.167,93.996 80.257,95.402 82.199,96.439C84.14,97.476 86.774,98.058 89.519,98.058Z" style="fill:rgb(51,51,51);"/>
            </g>
            <g transform="matrix(1,0,0,1,-2.416667,35.291667)">
                <path d="M120,135.001L120,50.416C120,47.653 121.097,45.004 123.051,43.051C125.004,41.097 127.654,40 130.417,40C133.179,40 135.829,41.097 137.783,43.051C139.736,45.004 140.833,47.653 140.833,50.416L140.833,135.001C140.833,137.763 139.736,140.413 137.783,142.366C135.829,144.319 133.179,145.417 130.417,145.417C127.654,145.417 125.004,144.319 123.051,142.366C121.097,140.413 120,137.763 120,135.001Z" style="fill:rgb(51,51,51);"/>
                <path d="M119.6,135.001L119.6,50.416C119.6,47.547 120.739,44.796 122.768,42.768C124.796,40.739 127.548,39.6 130.417,39.6C133.285,39.6 136.037,40.739 138.065,42.768C140.094,44.796 141.233,47.547 141.233,50.416L141.233,135.001C141.233,137.869 140.094,140.62 138.065,142.649C136.037,144.677 133.285,145.817 130.417,145.817C127.548,145.817 124.796,144.677 122.768,142.649C120.739,140.62 119.6,137.869 119.6,135.001ZM120,135.001C120,137.763 121.097,140.413 123.051,142.366C125.004,144.319 127.654,145.417 130.417,145.417C133.179,145.417 135.829,144.319 137.783,142.366C139.736,140.413 140.833,137.763 140.833,135.001L140.833,50.416C140.833,47.653 139.736,45.004 137.783,43.051C135.829,41.097 133.179,40 130.417,40C127.654,40 125.004,41.097 123.051,43.051C121.097,45.004 120,47.653 120,50.416L120,135.001Z" style="fill:rgb(51,51,51);"/>
            </g>
            <g transform="matrix(-1,-0,0,-1.872727,260.5,322.80303)">
                <path d="M89.519,98.058C86.774,98.058 84.14,97.476 82.199,96.439C80.257,95.402 79.167,93.996 79.167,92.53C79.167,81.687 79.167,58.677 79.167,58.677C79.167,47.748 95.783,38.875 116.25,38.875L148.75,38.875C169.217,38.875 185.833,47.748 185.833,58.677L185.833,92.53C185.833,93.996 184.743,95.402 182.801,96.439C180.86,97.476 178.226,98.058 175.481,98.058C175.438,98.058 175.395,98.058 175.353,98.058C172.607,98.058 169.974,97.476 168.032,96.439C166.091,95.402 165,93.996 165,92.53C165,81.687 165,58.677 165,58.677C165,53.888 157.719,50 148.75,50L116.25,50C107.281,50 100,53.888 100,58.677L100,92.53C100,93.996 98.909,95.402 96.968,96.439C95.026,97.476 92.393,98.058 89.647,98.058C89.605,98.058 89.562,98.058 89.519,98.058Z" style="fill:rgb(51,51,51);"/>
                <path d="M89.519,98.272C86.668,98.272 83.933,97.667 81.916,96.59C79.899,95.513 78.767,94.053 78.767,92.53L78.767,58.677C78.767,47.63 95.562,38.662 116.25,38.662L148.75,38.662C169.438,38.662 186.233,47.63 186.233,58.677L186.233,92.53C186.233,94.053 185.101,95.513 183.084,96.59C181.067,97.667 178.332,98.272 175.481,98.272L175.353,98.272C172.501,98.272 169.766,97.667 167.749,96.59C165.733,95.513 164.6,94.053 164.6,92.53L164.6,58.677C164.6,54.006 157.498,50.214 148.75,50.214L116.25,50.214C107.502,50.214 100.4,54.006 100.4,58.677L100.4,92.53C100.4,94.053 99.267,95.513 97.251,96.59C95.234,97.667 92.499,98.272 89.647,98.272L89.519,98.272ZM89.519,98.058L89.647,98.058C92.393,98.058 95.026,97.476 96.968,96.439C98.909,95.402 100,93.996 100,92.53L100,58.677C100,53.888 107.281,50 116.25,50L148.75,50C157.719,50 165,53.888 165,58.677L165,92.53C165,93.996 166.091,95.402 168.032,96.439C169.974,97.476 172.607,98.058 175.353,98.058L175.481,98.058C178.226,98.058 180.86,97.476 182.801,96.439C184.743,95.402 185.833,93.996 185.833,92.53L185.833,58.677C185.833,47.748 169.217,38.875 148.75,38.875L116.25,38.875C95.783,38.875 79.167,47.748 79.167,58.677L79.167,92.53C79.167,93.996 80.257,95.402 82.199,96.439C84.14,97.476 86.774,98.058 89.519,98.058Z" style="fill:rgb(51,51,51);"/>
            </g>
        </g>
    </g>
</svg>
