<svg id="Слой_2_копия_" data-name="Слой 2 (копия)" xmlns="http://www.w3.org/2000/svg" viewBox="0 0 625.79 659.25">
  <defs>
    <style>
      .cls-1 {
        fill: #333;
      }
    </style>
  </defs>
  <path class="cls-1" d="M513.11,287.67H186.89a58,58,0,0,0-58,58V563a58,58,0,0,0,58,58H513.11a58,58,0,0,0,58-58V345.67A58,58,0,0,0,513.11,287.67ZM195.85,413.4A50.2,50.2,0,1,1,246,463.61,50.19,50.19,0,0,1,195.85,413.4ZM445.6,561.07a22.55,22.55,0,0,1-16,6.62h-159a22.62,22.62,0,1,1,0-45.23h159a22.63,22.63,0,0,1,16,38.61Zm6.51-97.46A50.21,50.21,0,1,1,502.3,413.4,50.2,50.2,0,0,1,452.11,463.61Z" transform="translate(-37.11 -54.37)"/>
  <path class="cls-1" d="M95.11,372.63h.39v142h-.39a58,58,0,0,1-58-58v-26A58,58,0,0,1,95.11,372.63Z" transform="translate(-37.11 -54.37)"/>
  <path class="cls-1" d="M662.89,430.63v26a58,58,0,0,1-58,58h-.41v-142h.41A58,58,0,0,1,662.89,430.63Z" transform="translate(-37.11 -54.37)"/>
  <rect class="cls-1" x="160.85" y="595.25" width="304.09" height="64" rx="16"/>
  <path class="cls-1" d="M255.43,147.22H370.36a32,32,0,0,1,32,32v24a0,0,0,0,1,0,0H223.43a0,0,0,0,1,0,0v-24a32,32,0,0,1,32-32Z"/>
  <circle class="cls-1" cx="40.77" cy="151.11" r="38.87"/>
  <path class="cls-1" d="M96.13,228.57V341.33h-1a57.7,57.7,0,0,0-35.5,12.14V228.57a12,12,0,0,1,12-12H84.13A12,12,0,0,1,96.13,228.57Z" transform="translate(-37.11 -54.37)"/>
  <circle class="cls-1" cx="585.25" cy="151.11" r="38.87"/>
  <path class="cls-1" d="M640.61,228.57V353.63a57.7,57.7,0,0,0-35.72-12.3h-.79V228.57a12,12,0,0,1,12-12h12.51A12,12,0,0,1,640.61,228.57Z" transform="translate(-37.11 -54.37)"/>
  <circle class="cls-1" cx="312.89" cy="38.87" r="38.87"/>
  <rect class="cls-1" x="294.63" y="49.95" width="36.52" height="133.65" rx="12"/>
</svg>
