<svg id="FlatNoColor" xmlns="http://www.w3.org/2000/svg" viewBox="0 0 1842.52 1842.52">
  <defs>
    <style>
      .cls-1 {
        fill: #333;
      }
    </style>
  </defs>
  <g id="Update">
    <path class="cls-1" d="M1523.46,902.9H1202.81l-115.45,200h352.12v346.91H382.29V1102.87H734.44L619,902.9H298.3a116.12,116.12,0,0,0-116,116v514.89a116.13,116.13,0,0,0,116,116H1523.46a116.12,116.12,0,0,0,116-116V1018.88A116.12,116.12,0,0,0,1523.46,902.9Z"/>
    <polygon class="cls-1" points="1181.89 661.33 910.88 1130.68 639.83 661.33 802.16 661.33 802.16 192.75 1019.59 192.75 1019.59 661.33 1181.89 661.33"/>
  </g>
</svg>
