<?xml version="1.0" encoding="UTF-8" standalone="no"?>
<!DOCTYPE svg PUBLIC "-//W3C//DTD SVG 1.1//EN" "http://www.w3.org/Graphics/SVG/1.1/DTD/svg11.dtd">
<svg width="100%" height="100%" viewBox="0 0 256 256" version="1.1" xmlns="http://www.w3.org/2000/svg" xmlns:xlink="http://www.w3.org/1999/xlink" xml:space="preserve" xmlns:serif="http://www.serif.com/" style="fill-rule:evenodd;clip-rule:evenodd;stroke-linejoin:round;stroke-miterlimit:2;">
    <g id="Visibility">
        <g id="Compiled">
            <path d="M92.87,176.632C24.015,166.424 0,128 0,128C0,128 24.015,89.576 92.87,79.368C77.807,90.272 68,108 68,128C68,148 77.807,165.728 92.87,176.632ZM165.406,110.601C167.872,115.889 169.25,121.785 169.25,128C169.25,150.766 150.766,169.25 128,169.25C105.234,169.25 86.75,150.766 86.75,128C86.75,105.607 104.633,87.357 126.884,86.765C122.634,90.985 120,96.832 120,103.289C120,116.143 130.436,126.579 143.289,126.579C153.59,126.579 162.337,119.878 165.406,110.601ZM163.13,79.368C231.985,89.576 256,128 256,128C256,128 231.985,166.424 163.13,176.632C178.193,165.728 188,148 188,128C188,108 178.193,90.272 163.13,79.368Z" style="fill:rgb(51,51,51);"/>
        </g>
    </g>
</svg>
