<svg id="FlatNoColor" xmlns="http://www.w3.org/2000/svg" viewBox="0 0 1842.52 1842.52">
  <defs>
    <style>
      .cls-1 {
        fill: #333;
      }
    </style>
  </defs>
  <g id="Forge">
    <path class="cls-1" d="M1725.46,898.49v110.66a25.37,25.37,0,0,1-29.78,25c-25.73-4.57-57.71-10.63-95-7.4-100.91,8.72-124.33,25.32-149.83,36.22-26.84,11.49-254.59,109-237.89,251.56,9.84,83.91,101.34,157.92,219.58,185.18,0,0,14.27,5.78,18.52,15.28a41,41,0,0,1,2.06,6,44,44,0,0,1,.89,5.14c.39,3.72.45,32.51.18,73.66a12.76,12.76,0,0,1-12.74,12.67H1257.51a25.66,25.66,0,0,1-19.18-8.62l-15-17a25.64,25.64,0,0,0-19.18-8.63H868.41a25.61,25.61,0,0,0-19.18,8.63l-15.06,17a25.65,25.65,0,0,1-19.18,8.62H619.67a12.73,12.73,0,0,1-12.73-12.74V1515c4.25-9.5,18.51-15.28,18.51-15.28,69.22-28,129.51-52.41,159.48-88.12,22.8-27.21,33.57-67.59,23.9-102.41-8.69-31.25-31.51-49.53-40.25-56.35-32.72-25.49-69.73-27.72-133.39-30.7-12.69-.6-24.42-.75-35-.67a10,10,0,0,1-10.1-10v-23a6.72,6.72,0,0,0-6.69-6.72c-12.93,0-60.14-.1-73.07-.15-87.59-.51-151.76-22.11-190-38.72C175.5,1079.85,113.85,963,117.19,948.7a21.68,21.68,0,0,1,3.26-7.15c7.35-9.88,22.8-9.12,22.8-9.4H574.69a15.43,15.43,0,0,0,15.43-15.43V888.54a15.43,15.43,0,0,1,15.43-15.43H1700.07A25.38,25.38,0,0,1,1725.46,898.49Z"/>
    <path class="cls-1" d="M1162.38,461.7V713H969.77V594.41H220.3A34.54,34.54,0,0,1,185.86,560V470.41A34.54,34.54,0,0,1,220.3,436H969.77V230.11h58.89Z"/>
  </g>
</svg>
