<?xml version="1.0" encoding="UTF-8" standalone="no"?>
<!DOCTYPE svg PUBLIC "-//W3C//DTD SVG 1.1//EN" "http://www.w3.org/Graphics/SVG/1.1/DTD/svg11.dtd">
<svg width="100%" height="100%" viewBox="0 0 256 256" version="1.1" xmlns="http://www.w3.org/2000/svg" xmlns:xlink="http://www.w3.org/1999/xlink" xml:space="preserve" xmlns:serif="http://www.serif.com/" style="fill-rule:evenodd;clip-rule:evenodd;stroke-linejoin:round;stroke-miterlimit:2;">
    <g id="Visibility">
        <g id="Tall">
            <g id="Compiled">
                <path d="M73.356,179.351C19.316,164.563 0,128 0,128C0,128 19.316,91.437 73.356,76.649C60.736,90.072 53,108.14 53,128C53,147.86 60.736,165.928 73.356,179.351ZM182.644,76.649C236.684,91.437 256,128 256,128C256,128 236.684,164.563 182.644,179.351C195.264,165.928 203,147.86 203,128C203,108.14 195.264,90.072 182.644,76.649ZM99.094,184.231C78.723,173.729 64.779,152.48 64.779,128C64.779,115.876 68.199,104.544 74.127,94.918C73.716,96.797 73.5,98.749 73.5,100.75C73.5,106.517 75.295,111.868 78.357,116.274C83.28,123.359 91.477,128 100.75,128C115.79,128 128,115.79 128,100.75C128,89.389 121.032,79.642 111.141,75.554C107.938,74.231 104.429,73.5 100.75,73.5C98.749,73.5 96.797,73.716 94.918,74.127C96.277,73.29 97.67,72.503 99.094,71.769C107.759,67.302 117.587,64.779 128,64.779C138.413,64.779 148.241,67.302 156.906,71.769C177.277,82.271 191.221,103.52 191.221,128C191.221,152.48 177.277,173.729 156.906,184.231C148.241,188.698 138.413,191.221 128,191.221C117.587,191.221 107.759,188.698 99.094,184.231Z" style="fill:rgb(51,51,51);"/>
            </g>
        </g>
    </g>
</svg>
