<svg id="FlatNoColor" xmlns="http://www.w3.org/2000/svg" viewBox="0 0 1842.52 1842.52">
  <defs>
    <style>
      .cls-1 {
        fill: #333;
      }
    </style>
  </defs>
  <g id="Reload">
    <path class="cls-1" d="M1725.46,705.85l-220.72,59c-70.42-263.47-310.36-447.48-583.48-447.48A602.23,602.23,0,0,0,489.58,498.78L634.2,549.13,203.11,921.26,96.31,361.88,258.09,418.2a833.3,833.3,0,0,1,938-282.84,833.45,833.45,0,0,1,529.41,570.49Z"/>
    <path class="cls-1" d="M1746.23,1480.63l-161.79-56.32a833.29,833.29,0,0,1-938,282.86,833.44,833.44,0,0,1-529.4-570.49l220.7-59c70.42,263.48,310.36,447.48,583.49,447.48a602.19,602.19,0,0,0,431.67-181.43l-144.59-50.34L1639.4,921.26Z"/>
  </g>
</svg>
