<svg id="FlatNoColor" xmlns="http://www.w3.org/2000/svg" viewBox="0 0 1842.52 1842.52">
  <defs>
    <style>
      .cls-1 {
        fill: #333;
      }
    </style>
  </defs>
  <g id="Mods">
    <path class="cls-1" d="M1755.31,1087.56l-113-47.7c-8.16-3.43-14.06-19.74-14.06-38.76V841.41c0-19,5.9-35.33,14.06-38.75l113-47.7a14.27,14.27,0,0,0,8.38-16.18A846.89,846.89,0,0,0,1648.93,462a14.24,14.24,0,0,0-17.36-5.51L1518,502.64c-8.17,3.33-23.88-4-37.34-17.47L1367.72,372.25c-13.44-13.45-20.79-29.15-17.46-37.34l46.17-113.58a14.24,14.24,0,0,0-5.51-17.36,846.53,846.53,0,0,0-276.8-114.75,14.26,14.26,0,0,0-16.18,8.39l-47.69,113c-3.44,8.14-19.74,14.05-38.77,14.05H851.81c-19,0-35.33-5.91-38.77-14.05l-47.69-113a14.26,14.26,0,0,0-16.18-8.39A846.76,846.76,0,0,0,472.37,204a14.24,14.24,0,0,0-5.51,17.36L513,334.91c3.33,8.19-4,23.89-17.46,37.34L382.64,485.17c-13.46,13.45-29.17,20.8-37.34,17.47L231.72,456.47A14.24,14.24,0,0,0,214.36,462,846.63,846.63,0,0,0,99.62,738.78,14.24,14.24,0,0,0,108,755l113,47.7c8.15,3.42,14,19.74,14,38.75V1001.1c0,19-5.9,35.33-14,38.76l-113,47.7a14.24,14.24,0,0,0-8.38,16.18,846.72,846.72,0,0,0,114.74,276.8,14.24,14.24,0,0,0,17.36,5.51l113.58-46.17c8.17-3.33,23.88,4,37.34,17.47l112.93,112.92c13.44,13.45,20.79,29.15,17.46,37.34l-46.17,113.57a14.24,14.24,0,0,0,5.51,17.36,846.53,846.53,0,0,0,276.8,114.75,14.24,14.24,0,0,0,16.18-8.38l47.69-113c3.44-8.14,19.74-14.05,38.77-14.05h159.67c19,0,35.33,5.91,38.77,14.05l47.69,113a14.24,14.24,0,0,0,16.18,8.38,846.51,846.51,0,0,0,276.8-114.74,14.24,14.24,0,0,0,5.51-17.36l-46.17-113.58c-3.33-8.19,4-23.89,17.46-37.34l112.93-112.92c13.46-13.45,29.17-20.8,37.34-17.47l113.58,46.17a14.24,14.24,0,0,0,17.36-5.51,847,847,0,0,0,114.76-276.8A14.27,14.27,0,0,0,1755.31,1087.56Zm-314.63,127.57L931.65,1509l-509-293.89V627.37l509-293.89,509,293.89Z"/>
    <polygon class="cls-1" points="877.48 954.06 877.48 1371.75 515.74 1162.9 515.74 745.21 877.48 954.06"/>
    <polygon class="cls-1" points="1293.38 651.37 931.65 860.22 569.92 651.37 931.65 442.53 1293.38 651.37"/>
    <polygon class="cls-1" points="1347.56 745.21 1347.56 1162.9 985.83 1371.75 985.83 954.06 1347.56 745.21"/>
  </g>
</svg>
